<?xml version="1.0" encoding="utf-8"?>
<!-- Generator: Adobe Illustrator 26.2.1, SVG Export Plug-In . SVG Version: 6.00 Build 0)  -->
<svg version="1.1" id="Layer_1" xmlns="http://www.w3.org/2000/svg" xmlns:xlink="http://www.w3.org/1999/xlink" x="0px" y="0px"
	 viewBox="0 0 256 218" style="enable-background:new 0 0 256 218;" xml:space="preserve">
<style type="text/css">
	.st0{fill-rule:evenodd;clip-rule:evenodd;fill:#FFFFFF;}
	.st1{fill-rule:evenodd;clip-rule:evenodd;fill:#3ECC5F;}
	.st2{fill-rule:evenodd;clip-rule:evenodd;fill:#44D860;}
	.st3{fill-rule:evenodd;clip-rule:evenodd;}
	.st4{fill-rule:evenodd;clip-rule:evenodd;fill:#FFFF50;}
	.st5{fill:#FFFCC7;}
	.st6{fill-rule:evenodd;clip-rule:evenodd;fill:#456FD6;}
	.st7{fill:#FFFFFF;}
	.st8{fill:#6BA33A;}
	.st9{fill:#424143;}
</style>
<g transform="matrix(1.312821 0 0 1.312821 -3.938461 -22.614974)">
	<path class="st0" d="M98.8,52.1h84v34h-84V52.1z"/>
	<g>
		<path class="st1" d="M22.8,163.1c-7.4,0-13.8-4-17.3-10c-1.7,2.9-2.7,6.4-2.7,10c0,11,9,20,20,20h20v-20H22.8z"/>
		<path class="st1" d="M112.8,57.5l70-4.4v-10c0-11-9-20-20-20h-90l-2.5-4.3c-0.8-1.4-2.6-1.9-3.9-1.1c-0.4,0.3-0.8,0.6-1.1,1.1
			l-2.5,4.3l-2.5-4.3c-0.8-1.4-2.6-1.9-3.9-1.1c-0.4,0.3-0.8,0.6-1.1,1.1l-2.5,4.3l-2.5-4.3c-0.8-1.4-2.6-1.9-3.9-1.1
			c-0.4,0.3-0.8,0.6-1.1,1.1l-2.5,4.3c0,0,0,0-0.1,0L38.6,19c-1.1-1.1-3-1.1-4.1,0c-0.4,0.4-0.6,0.8-0.7,1.3l-1.4,5.1L27.2,24
			c-1.5-0.4-3.1,0.5-3.5,2.1c-0.1,0.5-0.1,1,0,1.5l1.4,5.2L20,34.2c-1.5,0.4-2.5,2-2,3.5c0.1,0.5,0.4,0.9,0.7,1.3l4.1,4.1
			c0,0,0,0,0,0.1l-4.3,2.5c-1.4,0.8-1.9,2.6-1.1,3.9c0.3,0.4,0.6,0.8,1.1,1.1l4.3,2.5l-4.3,2.5c-1.4,0.8-1.9,2.6-1.1,3.9
			c0.3,0.4,0.6,0.8,1.1,1.1l4.3,2.5l-4.3,2.5c-1.4,0.8-1.9,2.6-1.1,3.9c0.3,0.4,0.6,0.8,1.1,1.1l4.3,2.5l-4.3,2.5
			c-1.4,0.8-1.9,2.6-1.1,3.9c0.3,0.4,0.6,0.8,1.1,1.1l4.3,2.5l-4.3,2.5c-1.4,0.8-1.9,2.6-1.1,3.9c0.3,0.4,0.6,0.8,1.1,1.1l4.3,2.5
			l-4.3,2.5c-1.4,0.8-1.9,2.6-1.1,3.9c0.3,0.4,0.6,0.8,1.1,1.1l4.3,2.5l-4.3,2.5c-1.4,0.8-1.9,2.6-1.1,3.9c0.3,0.4,0.6,0.8,1.1,1.1
			l4.3,2.5l-4.3,2.5c-1.4,0.8-1.9,2.6-1.1,3.9c0.3,0.4,0.6,0.8,1.1,1.1l4.3,2.5l-4.3,2.5c-1.4,0.8-1.9,2.6-1.1,3.9
			c0.3,0.4,0.6,0.8,1.1,1.1l4.3,2.5l-4.3,2.5c-1.4,0.8-1.9,2.6-1.1,3.9c0.3,0.4,0.6,0.8,1.1,1.1l4.3,2.5l-4.3,2.5
			c-1.4,0.8-1.9,2.6-1.1,3.9c0.3,0.4,0.6,0.8,1.1,1.1l4.3,2.5l-4.3,2.5c-1.4,0.8-1.9,2.6-1.1,3.9c0.3,0.4,0.6,0.8,1.1,1.1l4.3,2.5
			c0,11,9,20,20,20h120c11,0,20-9,20-20v-80l-70-4.4c-5.6-0.4-10-5-10-10.6S107.2,57.9,112.8,57.5"/>
		<path class="st1" d="M142.8,183.1h30v-40h-30V183.1z"/>
	</g>
	<path class="st2" d="M192.8,158.1c-0.2,0-0.4,0-0.6,0.1l-0.1-0.4c1.8-0.8,3.1-2.5,3.1-4.6c0-2.8-2.2-5-5-5c-1.1,0-2.2,0.4-3,1
		l-0.3-0.3c0.6-0.8,1-1.9,1-3c0-2.8-2.2-5-5-5c-2,0-3.8,1.2-4.6,3l-0.4-0.1c0-0.2,0.1-0.4,0.1-0.6c0-2.8-2.2-5-5-5s-5,2.2-5,5
		c0,0.2,0,0.4,0.1,0.6l-0.4,0.1c-1.1-2.5-4-3.7-6.6-2.6c-1.8,0.8-3,2.6-3,4.6c0,1.1,0.4,2.1,1,3c-3.9,3.8-6,8.9-6,14.3
		c0,11,9,20,20,20c9.3,0,17.2-6.4,19.4-15.1c0.2,0,0.4,0.1,0.6,0.1c2.8,0,5-2.2,5-5S195.6,158.1,192.8,158.1"/>
	<path class="st1" d="M152.8,123.1h30v-20h-30V123.1z"/>
	<g>
		<path id="A" class="st2" d="M192.8,115.6c1.4,0,2.5-1.1,2.5-2.5s-1.1-2.5-2.5-2.5c-0.1,0-0.2,0-0.3,0l-0.1-0.2
			c1.3-0.5,1.9-2,1.3-3.3c-0.4-0.9-1.3-1.5-2.3-1.5c-0.5,0-1.1,0.2-1.5,0.5l-0.1-0.1c0.3-0.4,0.5-1,0.5-1.5c0-1.4-1.1-2.5-2.5-2.5
			c-1,0-1.9,0.6-2.3,1.5c-0.9-0.2-1.8-0.4-2.7-0.4c-5.5,0-10,4.5-10,10s4.5,10,10,10c0.9,0,1.8-0.1,2.7-0.4c0.5,1.3,2,1.9,3.3,1.3
			c0.9-0.4,1.5-1.3,1.5-2.3c0-0.6-0.2-1.1-0.5-1.5c0.1-0.1,0.1-0.1,0.2-0.2c0.4,0.3,1,0.5,1.5,0.5c1.4,0,2.5-1.1,2.5-2.5
			c0-1-0.6-1.9-1.5-2.3l0.1-0.2C192.6,115.6,192.7,115.6,192.8,115.6"/>
	</g>
	<path class="st3" d="M62.8,55.6c-1.4,0-2.5-1.1-2.5-2.5c0-4.1-3.4-7.5-7.5-7.5s-7.5,3.4-7.5,7.5c0,1.4-1.1,2.5-2.5,2.5
		s-2.5-1.1-2.5-2.5c0-6.9,5.6-12.5,12.5-12.5s12.5,5.6,12.5,12.5C65.3,54.5,64.2,55.6,62.8,55.6"/>
	<path class="st4" d="M102.8,183.1h60c11,0,20-9,20-20v-70h-60c-11,0-20,9-20,20V183.1z"/>
	<path class="st5" d="M177.9,164.9h-22.7c-1.3,0-2.3-1-2.3-2.3v-28.3c0-1.3,1-2.3,2.3-2.3h22.7c1.3,0,2.3,1,2.3,2.3v28.3
		C180.2,163.9,179.2,164.9,177.9,164.9z"/>
	<path class="st5" d="M177.9,130.7h-22.7c-1.3,0-2.3-1-2.3-2.3v-7c0-1.3,1-2.3,2.3-2.3h22.7c1.3,0,2.3,1,2.3,2.3v7
		C180.2,129.7,179.2,130.7,177.9,130.7z"/>
	<path class="st5" d="M177.9,117.8h-22.7c-1.3,0-2.3-1-2.3-2.3v-7c0-1.3,1-2.3,2.3-2.3h22.7c1.3,0,2.3,1,2.3,2.3v7
		C180.2,116.8,179.2,117.8,177.9,117.8z"/>
	<g>
		<path id="B" class="st3" d="M148.8,124.1h-31.3c-0.4,0-0.6-0.4-0.6-1s0.3-1,0.6-1h31.3c0.4,0,0.6,0.4,0.6,1
			S149.2,124.1,148.8,124.1"/>
	</g>
	<g>
		<path id="B_00000124884242155197836500000001762424815946258310_" class="st3" d="M148.8,144.1h-31.3c-0.4,0-0.6-0.4-0.6-1
			s0.3-1,0.6-1h31.3c0.4,0,0.6,0.4,0.6,1C149.4,143.7,149.2,144.1,148.8,144.1"/>
	</g>
	<g>
		<path id="B_00000116919951014250089050000017280419996955854479_" class="st3" d="M148.8,164.1h-31.3c-0.4,0-0.6-0.4-0.6-1
			s0.3-1,0.6-1h31.3c0.4,0,0.6,0.4,0.6,1C149.4,163.7,149.2,164.1,148.8,164.1"/>
	</g>
	<g>
		<path id="B_00000050621286863345061850000010766364414830858119_" class="st3" d="M148.8,114.3h-31.3c-0.4,0-0.6-0.4-0.6-1
			s0.3-1,0.6-1h31.3c0.4,0,0.6,0.4,0.6,1S149.2,114.3,148.8,114.3"/>
	</g>
	<g>
		<path id="B_00000120518818150365178640000002724807908153228705_" class="st3" d="M148.8,134.1h-31.3c-0.4,0-0.6-0.4-0.6-1
			s0.3-1,0.6-1h31.3c0.4,0,0.6,0.4,0.6,1C149.4,133.7,149.2,134.1,148.8,134.1"/>
	</g>
	<g>
		<path id="B_00000069372040270331278020000011543194126438300313_" class="st3" d="M148.8,154.1h-31.3c-0.4,0-0.6-0.4-0.6-1
			s0.3-1,0.6-1h31.3c0.4,0,0.6,0.4,0.6,1C149.4,153.7,149.2,154.1,148.8,154.1"/>
	</g>
	<path class="st3" d="M182.8,61.7L182.8,61.7c-3.1,0.1-4.6,3.2-5.9,5.9c-1.3,2.8-2.4,4.7-4.1,4.6c-1.9-0.1-3-2.2-4.1-4.5
		c-1.3-2.6-2.8-5.5-6-5.4c-3,0.1-4.5,2.8-5.8,5.2c-1.4,2.5-2.3,4.1-4.1,4c-1.9-0.1-2.9-1.8-4.1-3.8c-1.3-2.2-2.8-4.8-5.9-4.7
		c-3,0.1-4.5,2.4-5.8,4.4c-1.4,2.1-2.3,3.4-4.2,3.3c-2-0.1-3-1.5-4.2-3.2c-1.3-1.9-2.8-4-5.9-3.9c-2.9,0.1-4.4,2-5.7,3.6
		c-1.2,1.6-2.2,2.8-4.2,2.7c-0.6,0-1,0.4-1,1s0.4,1,1,1c3,0.1,4.5-1.8,5.9-3.5c1.2-1.5,2.2-2.8,4.2-2.9c1.9-0.1,2.8,1.1,4.2,3
		c1.3,1.8,2.8,3.9,5.7,4c3.1,0.1,4.6-2.2,5.9-4.3c1.2-1.8,2.2-3.4,4.1-3.5c1.8-0.1,2.8,1.3,4.1,3.7c1.3,2.2,2.8,4.7,5.8,4.8
		c3.1,0.1,4.6-2.6,5.9-5c1.1-2.1,2.2-4.1,4.1-4.1c1.8,0,2.7,1.6,4.1,4.3c1.3,2.6,2.8,5.4,5.8,5.6h0.2c3.1,0,4.5-3.1,5.8-5.8
		c1.1-2.4,2.2-4.7,4.1-4.8L182.8,61.7L182.8,61.7z"/>
	<path class="st1" d="M82.8,183.1h40v-40h-40V183.1z"/>
	<path class="st2" d="M142.8,158.1c-0.2,0-0.4,0-0.6,0.1l-0.1-0.4c1.8-0.8,3.1-2.5,3.1-4.6c0-2.8-2.2-5-5-5c-1.1,0-2.2,0.4-3,1
		l-0.3-0.3c0.6-0.8,1-1.9,1-3c0-2.8-2.2-5-5-5c-2,0-3.8,1.2-4.6,3l-0.4-0.1c0-0.2,0.1-0.4,0.1-0.6c0-2.8-2.2-5-5-5s-5,2.2-5,5
		c0,0.2,0,0.4,0.1,0.6l-0.4,0.1c-1.1-2.5-4-3.7-6.6-2.6c-1.8,0.8-3,2.6-3,4.6c0,1.1,0.4,2.1,1,3c-3.9,3.8-6,8.9-6,14.3
		c0,11,9,20,20,20c9.3,0,17.2-6.4,19.4-15.1c0.2,0,0.4,0.1,0.6,0.1c2.8,0,5-2.2,5-5S145.6,158.1,142.8,158.1"/>
	<path class="st1" d="M82.8,123.1h40v-20h-40V123.1z"/>
	<path class="st3" d="M142.8,41.9c-0.2,0-0.3,0-0.5,0s-0.3-0.1-0.5-0.1c-0.1-0.1-0.3-0.1-0.4-0.2l-0.4-0.3c-0.1-0.1-0.2-0.2-0.3-0.4
		c-0.1-0.1-0.2-0.3-0.2-0.4c-0.1-0.2-0.1-0.3-0.1-0.5s-0.1-0.3-0.1-0.5s0-0.3,0.1-0.5s0.1-0.3,0.1-0.5c0.1-0.2,0.1-0.3,0.2-0.4
		l0.3-0.4c0.1-0.1,0.2-0.2,0.4-0.3c0.1-0.1,0.3-0.2,0.4-0.2c0.2-0.1,0.3-0.1,0.5-0.1c0.3-0.1,0.6-0.1,1,0c0.2,0,0.3,0.1,0.5,0.1
		s0.3,0.1,0.4,0.2l0.4,0.3c0.1,0.1,0.2,0.2,0.3,0.4c0.1,0.1,0.2,0.3,0.2,0.4c0.1,0.2,0.1,0.3,0.1,0.5s0,0.3,0.1,0.5
		c0,0.7-0.3,1.3-0.7,1.8c-0.1,0.1-0.2,0.2-0.4,0.3c-0.1,0.1-0.3,0.2-0.4,0.2c-0.1,0.1-0.3,0.1-0.5,0.1
		C143.1,41.9,142.9,41.9,142.8,41.9 M162.8,40.6c-0.7,0-1.3-0.3-1.8-0.7c-0.1-0.1-0.2-0.2-0.3-0.4c-0.1-0.1-0.2-0.3-0.2-0.4
		c-0.1-0.2-0.1-0.3-0.1-0.5s-0.1-0.3-0.1-0.5c0-0.7,0.3-1.3,0.7-1.8c0.1-0.1,0.2-0.2,0.4-0.3c0.1-0.1,0.3-0.2,0.4-0.2
		c0.2-0.1,0.3-0.1,0.5-0.1c0.3-0.1,0.7-0.1,1,0c0.2,0,0.3,0.1,0.5,0.1s0.3,0.1,0.4,0.2l0.4,0.3c0.5,0.5,0.7,1.1,0.7,1.8
		c0,0.2,0,0.3-0.1,0.5c0,0.2-0.1,0.3-0.1,0.5c-0.1,0.1-0.1,0.3-0.2,0.4c-0.1,0.1-0.2,0.3-0.3,0.4c-0.1,0.1-0.2,0.2-0.4,0.3
		c-0.1,0.1-0.3,0.2-0.4,0.2c-0.1,0.1-0.3,0.1-0.5,0.1C163.1,40.6,163,40.6,162.8,40.6"/>
	<g>
		<path id="B_00000001655744834390179970000014342039770520265905_" class="st2" d="M177,138.7h-20.9c-0.3,0-0.4-0.4-0.4-1
			s0.2-1,0.4-1H177c0.3,0,0.4,0.4,0.4,1S177.2,138.7,177,138.7"/>
	</g>
	<g>
		<path id="B_00000148647047245187535260000013562927248337013649_" class="st6" d="M177,145.9h-20.9c-0.3,0-0.4-0.4-0.4-1
			s0.2-1,0.4-1H177c0.3,0,0.4,0.4,0.4,1S177.2,145.9,177,145.9"/>
	</g>
	<g>
		<path id="B_00000182511967574654077840000007363661901904182198_" class="st6" d="M177,160.2h-20.9c-0.3,0-0.4-0.4-0.4-1
			s0.2-1,0.4-1H177c0.3,0,0.4,0.4,0.4,1S177.2,160.2,177,160.2"/>
	</g>
	<g>
		<path id="B_00000072280874575500521860000008299523109268432280_" class="st2" d="M177,153h-20.9c-0.3,0-0.4-0.4-0.4-1
			s0.2-1,0.4-1H177c0.3,0,0.4,0.4,0.4,1S177.2,153,177,153"/>
	</g>
	<g>
		<path id="B_00000181053404037946274230000000345745992552041118_" class="st6" d="M177,113.3h-20.9c-0.3,0-0.4-0.4-0.4-1
			s0.2-1,0.4-1H177c0.3,0,0.4,0.4,0.4,1S177.2,113.3,177,113.3"/>
	</g>
	<g>
		<path id="B_00000053504870393379378400000009398694766973027737_" class="st2" d="M177,125.9h-20.9c-0.3,0-0.4-0.4-0.4-1
			s0.2-1,0.4-1H177c0.3,0,0.4,0.4,0.4,1S177.2,125.9,177,125.9"/>
	</g>
	<g id="LFdrFn.tif">
		<circle class="st7" cx="145.1" cy="113" r="25"/>
		<g>
			<path class="st8" d="M162.8,90.6L162.8,90.6c-0.2,0-0.5,0-0.7,0l0,0C162.3,90.6,162.6,90.6,162.8,90.6z"/>
		</g>
	</g>
	<g>
		<path id="A_00000015313918354177857990000008612333640051593633_" class="st2" d="M132.8,115.6c1.4,0,2.5-1.1,2.5-2.5
			s-1.1-2.5-2.5-2.5c-0.1,0-0.2,0-0.3,0l-0.1-0.2c1.3-0.5,1.9-2,1.3-3.3c-0.4-0.9-1.3-1.5-2.3-1.5c-0.5,0-1.1,0.2-1.5,0.5l-0.1-0.1
			c0.3-0.4,0.5-1,0.5-1.5c0-1.4-1.1-2.5-2.5-2.5c-1,0-1.9,0.6-2.3,1.5c-0.9-0.2-1.8-0.4-2.7-0.4c-5.5,0-10,4.5-10,10s4.5,10,10,10
			c0.9,0,1.8-0.1,2.7-0.4c0.5,1.3,2,1.9,3.3,1.3c0.9-0.4,1.5-1.3,1.5-2.3c0-0.6-0.2-1.1-0.5-1.5c0.1-0.1,0.1-0.1,0.2-0.2
			c0.4,0.3,1,0.5,1.5,0.5c1.4,0,2.5-1.1,2.5-2.5c0-1-0.6-1.9-1.5-2.3l0.1-0.2C132.6,115.6,132.7,115.6,132.8,115.6"/>
	</g>
</g>
<g transform="translate(0.000000,200.000000) scale(0.100000,-0.100000)">
	<path d="M1846.4,941c-26.5-4.5-55.6-24.3-61-41.5c-4.2-12.6-3.2-37.7,2.2-64.8c10.8-54.3,3.9-71.6-29.7-75.4l-12-1.5v-14.7v-14.9
		h10.5c13.7,0,26-5.8,31.6-14.9c5.9-9.8,5.6-28.3-0.5-59.6c-12-60.9-3.4-83.5,38-100.3c8.1-3.4,21.1-6.6,28.9-7.5l14-1.5v14.1
		c0,13.8-0.2,14.3-6.6,15.3c-25.2,4.5-35.5,11.1-38.5,24.1c-0.7,4,0.2,16.8,2.5,28.8c2.2,11.9,4.2,32.4,4.2,45.2
		c0.2,28.3-4.4,41.3-21.6,60.7l-11.5,13.2l8.6,7.7c10.5,9.4,20.3,27.3,24,43.9c2.5,9.8,2,18.1-1.7,45.6c-5.6,41.8-5.6,52.2,0.5,58.2
		c6.4,6.2,22.5,12.6,32.4,12.6h7.8v14.9C1868.4,945.2,1869.2,944.8,1846.4,941z"/>
	<path d="M2046.9,942.1c-1.2-0.9-2-7.7-2-15.1v-13.4h9.3c11.5,0,27.2-7.7,32.8-16.2c4.2-6.2,4.2-7.7-0.5-38.3
		c-5.9-38.6-6.1-53.5-1.2-70.1c4.2-13.6,10-23.2,22.3-36l8.1-8.3l-9.6-9.8c-22.1-23-27.2-43-22.3-83.9c4.9-39.6,5.9-52,4.2-57.9
		c-2-6.8-17.4-15.6-31.1-17.7l-10.8-1.5l-0.7-14.5c-0.7-13.8-0.5-14.3,5.1-14.3c7.6,0,30.1,6,41.4,10.9c14.7,6.4,26.7,17,32.8,28.5
		c7.1,13,7.8,34.7,2.2,60.1c-10.8,47.1-9.6,65.4,4.4,76.7c7.1,5.5,11.5,7,23.5,8.3l14.9,1.5v13.4v13.4l-11.5,1.3
		c-14.2,1.5-26.5,6.6-32.6,13.4c-8.1,8.7-8.3,21.3-1.5,57.7c8.8,46.7,8.6,60.9-1.5,77.1c-11.8,19.4-33.8,31.7-62.7,35.2
		C2053.7,943.1,2047.8,942.9,2046.9,942.1z"/>
	<path d="M1995.4,902c-14-4.3-20.8-8.9-27.9-18.7c-10.8-14.7-34.1-56.9-45.3-82c-5.9-13.2-11.3-24.1-12-24.1s-5.4,5.8-10.8,12.4
		c-5.1,6.8-13,14.5-17.2,17c-9.3,5.5-24.8,6.2-32.8,1.3l-5.4-3.2l12.3-11.9c12.7-12.6,38.2-44.7,50.5-63.9
		c3.9-6.2,7.8-11.3,8.6-11.3c2,0,1.2-1.5,20.6,43.7c30.6,71.6,42.6,91,76.7,124.2c12.7,12.4,15.4,16,12.5,17.7
		C2020.2,905.8,2005.9,905.2,1995.4,902z"/>
	<path d="M2049.3,762.9c-8.1-0.9-11.8-3.4-31.6-23.2c-15.2-15.1-23.3-21.7-25-20.2c-1.2,1.1-7.1,10-12.7,19.8
		c-10,17.5-10.5,17.7-18.6,17c-4.7-0.4-10.3-1.7-12.7-3c-5.6-2.6-4.7-6.4,8.6-40.7c9.1-23.2,9.6-25.4,5.9-29.8
		c-2-2.6-14.2-16.6-27-31.3c-34.1-38.8-41.9-55.4-31.9-67.7c2.9-3.6,5.9-4.7,11.5-4.3c6.6,0.6,9.6,2.8,18.1,14.5
		c36.5,49.4,48,64.1,50.5,63.3c1.2-0.2,9.8-10.2,18.6-21.7c18.9-24.7,22.8-26.2,31.6-12.4l5.6,9.2l-14.7,28.8l-14.9,29l14.7,17.5
		c8.1,9.6,20.8,24.3,28.4,32.8c10,11.5,13.2,16.4,12,19.8c-0.7,2.3-2.9,4-4.4,3.8C2059.6,763.7,2054.2,763.3,2049.3,762.9z"/>
</g>
<g>
	<path class="st9" d="M231.6,181.9l-2.6-5c-0.5-0.9-0.3-2.2,0.4-2.8l6.1-5.4c0.7-0.6,1.7-0.4,2.1,0.5l2.6,5c0.5,0.9,0.3,2.2-0.4,2.8
		l-6.1,5.4C233.1,183,232.1,182.8,231.6,181.9z"/>
	<g>
		<g>
			<path class="st9" d="M215.4,107.5c2.7-3.4,6.3-6.8,10.1-7.6c1.5-0.3,3,0,4,1.7c1.7,3,0.5,7-0.2,10.2c-0.9,3.8-1.7,7.5-1.3,11.5
				c0.4,3.3,1.4,6.4,2.6,9.3c1.1,2.9,2.2,5.7,2.7,8.8c0.6,3.5-0.1,6.4-1.1,9.6c-1.3,4.2-2.8,8.4-3,13c-0.2,4.7,2,8.8,4,12.3
				c0.5,0.9,1.6,0.7,2.1,0c0.6-0.8,0.5-2,0-2.8c-1.9-3.2-3.5-6.7-3-10.9c0.5-4.1,2-7.9,3.1-11.7c1.1-3.5,1.4-6.8,0.8-10.5
				c-0.6-3.4-1.9-6.5-3-9.6c-1.1-2.9-2.3-6.1-2.4-9.4c-0.2-4.1,1.3-8,2.1-11.9c0.8-3.9,0.7-7.7-1.4-10.9c-1.4-2.1-3.5-3-5.6-2.8
				c-4.8,0.5-9.4,4.6-12.8,8.9C211.8,106.5,213.9,109.3,215.4,107.5L215.4,107.5z"/>
		</g>
	</g>
	<path class="st9" d="M236,184l-2.6-5c-0.2-0.3-0.1-0.8,0.2-1l0,0c0.2-0.2,0.6-0.1,0.8,0.2l2.6,5c0.2,0.3,0.1,0.8-0.2,1l0,0
		C236.6,184.4,236.3,184.3,236,184z"/>
	<path class="st9" d="M239.1,181.7l-2.6-5c-0.2-0.3-0.1-0.8,0.2-1l0,0c0.2-0.2,0.6-0.1,0.8,0.2l2.6,5c0.2,0.3,0.1,0.8-0.2,1l0,0
		C239.6,182.1,239.2,182,239.1,181.7z"/>
</g>
</svg>
