<?xml version="1.0" encoding="utf-8"?><svg version="1.1" id="Layer_1" xmlns="http://www.w3.org/2000/svg" xmlns:xlink="http://www.w3.org/1999/xlink" x="0px" y="0px" viewBox="0 0 126.8 122.88" style="enable-background:new 0 0 126.8 122.88" xml:space="preserve"><style type="text/css"><![CDATA[
	.st0{fill:#21552A;}
	.st1{fill:#3FA652;}
]]></style><g><path class="st0" d="M69.4,78.06c3.92-1.6,6.86-4.61,8.47-8.23c1.65-3.71,1.89-8.04,0.32-12.12l0-0.01 c-1.56-4.07-4.64-7.13-8.35-8.78c-3.7-1.65-8.04-1.89-12.12-0.32l0,0c-4.07,1.56-7.13,4.64-8.78,8.35 c-1.65,3.7-1.89,8.04-0.32,12.12l0,0.01l0.02-0.01c0.8,2.08,2.03,3.95,3.58,5.5c1.57,1.57,3.44,2.81,5.5,3.6 c2.36,0.9,3.54,3.54,2.64,5.9l0.02,0.01l-13.75,35.83c-0.9,2.37-3.55,3.56-5.92,2.66c-0.14-0.05-0.27-0.11-0.4-0.17 c-16.15-6.32-28.25-18.54-34.79-33.22C-1.1,74.35-2.05,57.02,4.22,40.7c0.05-0.14,0.11-0.27,0.17-0.4 c6.32-16.15,18.54-28.25,33.22-34.79C52.44-1.1,69.78-2.05,86.1,4.22c12.31,4.72,22.3,12.87,29.3,22.93 c7.2,10.34,11.23,22.74,11.38,35.56l0,0.04h0.02v1.09c0,0.16-0.01,0.31-0.02,0.46c-0.05,3.64-0.41,7.27-1.09,10.86 c-0.69,3.64-1.73,7.3-3.12,10.94l0.02,0.01c-3.22,8.4-8.15,15.91-14.36,22.12c-6.21,6.21-13.72,11.13-22.12,14.36 c-2.37,0.9-5.02-0.29-5.92-2.66L66.43,84.09c-0.9-2.37,0.29-5.02,2.66-5.92C69.19,78.13,69.29,78.09,69.4,78.06L69.4,78.06z M86.23,73.57c-2.01,4.51-5.35,8.43-9.74,11.12l10.55,27.49c5.48-2.66,10.43-6.2,14.69-10.46c5.32-5.32,9.53-11.73,12.28-18.89 l0.02,0.01l0-0.01c1.17-3.06,2.06-6.2,2.66-9.37c0.59-3.12,0.9-6.22,0.95-9.27c-0.01-0.12-0.01-0.24-0.01-0.36v-1.09h0.02 c-0.13-10.9-3.6-21.48-9.77-30.35c-5.98-8.6-14.52-15.55-25.03-19.59c-13.99-5.37-28.82-4.57-41.48,1.07 c-12.58,5.6-23.04,15.96-28.44,29.76c-0.03,0.11-0.07,0.23-0.11,0.34c-5.37,13.99-4.57,28.82,1.07,41.49 c5.06,11.37,14.01,21.01,25.88,26.75l10.56-27.5c-1.68-1.03-3.22-2.24-4.59-3.61c-2.45-2.45-4.39-5.41-5.66-8.73l0.02-0.01 c-2.47-6.44-2.1-13.27,0.5-19.11c2.53-5.69,7.19-10.44,13.41-12.97c0.3-0.15,0.61-0.28,0.95-0.36c6.3-2.28,12.95-1.87,18.65,0.67 c5.69,2.53,10.44,7.19,12.97,13.41c0.15,0.3,0.28,0.62,0.36,0.95C89.18,61.22,88.77,67.87,86.23,73.57L86.23,73.57z"/><path class="st1" d="M70.71,82.46c10.53-4.04,15.78-15.85,11.74-26.38C78.42,45.55,66.61,40.3,56.08,44.34 C45.56,48.38,40.3,60.19,44.34,70.71c2.07,5.4,6.34,9.67,11.74,11.74l-13.75,35.83C12.01,106.65-3.13,72.65,8.51,42.33 C20.14,12.01,54.15-3.13,84.47,8.51c23.16,8.89,37.47,30.84,37.74,54.23v1.09c-0.05,6.87-1.31,13.84-3.91,20.64 c-5.97,15.56-18.26,27.85-33.82,33.82L70.71,82.46L70.71,82.46z"/></g></svg>